<svg width="40" height="40" viewBox="0 0 40 40" fill="none" xmlns="http://www.w3.org/2000/svg">
<rect width="40" height="40" rx="4" fill="url(#paint0_linear_2114_5730)"/>
<g clip-path="url(#clip0_2114_5730)">
<path d="M19.0834 11.75L27.3325 12.9292L28.5109 21.1792L20.8509 28.8392C20.6946 28.9954 20.4827 29.0832 20.2617 29.0832C20.0407 29.0832 19.8288 28.9954 19.6725 28.8392L11.4225 20.5892C11.2663 20.4329 11.1785 20.221 11.1785 20C11.1785 19.779 11.2663 19.5671 11.4225 19.4108L19.0834 11.75ZM21.44 18.8217C21.5948 18.9764 21.7786 19.0991 21.9808 19.1829C22.183 19.2666 22.3998 19.3097 22.6186 19.3096C22.8375 19.3096 23.0542 19.2664 23.2564 19.1826C23.4586 19.0988 23.6424 18.976 23.7971 18.8212C23.9518 18.6665 24.0746 18.4827 24.1583 18.2805C24.242 18.0782 24.2851 17.8615 24.2851 17.6426C24.285 17.4237 24.2419 17.207 24.1581 17.0048C24.0743 16.8026 23.9515 16.6189 23.7967 16.4642C23.6419 16.3094 23.4581 16.1867 23.2559 16.103C23.0537 16.0192 22.8369 15.9762 22.6181 15.9762C22.176 15.9763 21.7521 16.152 21.4396 16.4646C21.1271 16.7772 20.9516 17.2012 20.9516 17.6432C20.9517 18.0853 21.1274 18.5092 21.44 18.8217Z" fill="white"/>
</g>
<defs>
<linearGradient id="paint0_linear_2114_5730" x1="-2.98023e-07" y1="40" x2="44.966" y2="6.70717" gradientUnits="userSpaceOnUse">
<stop stop-color="#FF3366"/>
<stop offset="1" stop-color="#FF6732"/>
</linearGradient>
<clipPath id="clip0_2114_5730">
<rect width="20" height="20" fill="white" transform="translate(10 10)"/>
</clipPath>
</defs>
</svg>
