<svg width="20" height="20" viewBox="0 0 20 20" fill="none" xmlns="http://www.w3.org/2000/svg">
<g clip-path="url(#clip0_12563_2839)">
<path d="M2.55317 6.25832C3.24651 4.87769 4.31015 3.71708 5.6252 2.90621C6.94025 2.09535 8.45489 1.66617 9.99984 1.66666C12.2457 1.66666 14.1323 2.49166 15.5748 3.83749L13.1857 6.22749C12.3215 5.40166 11.2232 4.98082 9.99984 4.98082C7.829 4.98082 5.99151 6.44749 5.33734 8.41666C5.17067 8.91666 5.07567 9.44999 5.07567 9.99999C5.07567 10.55 5.17067 11.0833 5.33734 11.5833C5.99234 13.5533 7.829 15.0192 9.99984 15.0192C11.1207 15.0192 12.0748 14.7233 12.8215 14.2233C13.2544 13.9383 13.6249 13.5685 13.9108 13.1362C14.1967 12.704 14.392 12.2182 14.4848 11.7083H9.99984V8.48499H17.8482C17.9465 9.02999 17.9998 9.59832 17.9998 10.1892C17.9998 12.7275 17.0915 14.8642 15.5148 16.3142C14.1365 17.5875 12.2498 18.3333 9.99984 18.3333C8.90537 18.3338 7.82154 18.1185 6.81029 17.6999C5.79905 17.2812 4.88021 16.6674 4.1063 15.8935C3.3324 15.1196 2.71858 14.2008 2.29995 13.1895C1.88132 12.1783 1.66607 11.0945 1.6665 9.99999C1.6665 8.65499 1.98817 7.38332 2.55317 6.25832Z" fill="#DC3CAA"/>
</g>
<defs>
<clipPath id="clip0_12563_2839">
<rect width="20" height="20" fill="white"/>
</clipPath>
</defs>
</svg>
