<svg width="48" height="48" viewBox="0 0 48 48" fill="none" xmlns="http://www.w3.org/2000/svg">
<circle cx="24" cy="24" r="24" fill="#1C1C1E"/>
<g clip-path="url(#clip0_1433_1758)">
<path d="M28 24.667L17.777 31.482C17.7017 31.5321 17.6142 31.5608 17.5239 31.5652C17.4336 31.5695 17.3437 31.5492 17.264 31.5065C17.1843 31.4639 17.1176 31.4003 17.0711 31.3228C17.0246 31.2452 17 31.1564 17 31.066V16.934C17 16.8436 17.0246 16.7548 17.0711 16.6772C17.1176 16.5997 17.1843 16.5361 17.264 16.4935C17.3437 16.4508 17.4336 16.4305 17.5239 16.4348C17.6142 16.4392 17.7017 16.4679 17.777 16.518L28 23.333V17C28 16.7348 28.1054 16.4804 28.2929 16.2929C28.4804 16.1054 28.7348 16 29 16C29.2652 16 29.5196 16.1054 29.7071 16.2929C29.8946 16.4804 30 16.7348 30 17V31C30 31.2652 29.8946 31.5196 29.7071 31.7071C29.5196 31.8946 29.2652 32 29 32C28.7348 32 28.4804 31.8946 28.2929 31.7071C28.1054 31.5196 28 31.2652 28 31V24.667Z" fill="white"/>
</g>
<defs>
<clipPath id="clip0_1433_1758">
<rect width="24" height="24" fill="white" transform="translate(12 12)"/>
</clipPath>
</defs>
</svg>
