<svg id="Bluetooth_Icon" data-name="Bluetooth Icon" xmlns="http://www.w3.org/2000/svg" width="40" height="40" viewBox="0 0 40 40">
  <rect id="Rectangle_141" data-name="Rectangle 141" width="40" height="40" fill="#fff" opacity="0"/>
  <path id="bluetooth" d="M13.867,20.89a.706.706,0,0,1-.279-.06.666.666,0,0,1-.386-.606v-7.05L8.814,17.561l-.939-.939,5.053-5.053L7.875,6.516l.939-.939L13.2,9.965V2.915a.664.664,0,0,1,1.1-.506L18.959,6.4A.7.7,0,0,1,19,7.409l-4.194,4.161L19,15.757a.639.639,0,0,1-.04.952L14.3,20.7A.666.666,0,0,1,13.867,20.89Zm.666-7.716V18.78l3.016-2.59Zm0-8.814V9.965L17.548,6.95Z" transform="translate(6.029 9.182)" fill="#fff"/>
</svg>
