<svg width="25" height="24" viewBox="0 0 25 24" fill="none" xmlns="http://www.w3.org/2000/svg">
<g id="Group">
<path id="Vector" d="M12.5 2C18.023 2 22.5 6.477 22.5 12C22.5 17.523 18.023 22 12.5 22C6.977 22 2.5 17.523 2.5 12C2.5 6.477 6.977 2 12.5 2ZM12.5 11C10.5 11 8.833 11.333 7.5 12C7.5 13.3261 8.02678 14.5979 8.96447 15.5355C9.90215 16.4732 11.1739 17 12.5 17C13.8261 17 15.0979 16.4732 16.0355 15.5355C16.9732 14.5979 17.5 13.3261 17.5 12C16.167 11.333 14.5 11 12.5 11ZM9 7C7.848 7 6.878 7.78 6.588 8.84L6.55 9H11.45C11.3347 8.43532 11.0279 7.9278 10.5815 7.56335C10.135 7.19889 9.57633 6.99988 9 7ZM16 7C14.848 7 13.878 7.78 13.588 8.84L13.55 9H18.45C18.3347 8.43532 18.0279 7.9278 17.5815 7.56335C17.135 7.19889 16.5763 6.99988 16 7Z" fill="url(#paint0_linear_4956_708)"/>
</g>
<defs>
<linearGradient id="paint0_linear_4956_708" x1="2.5" y1="22" x2="24.983" y2="5.35359" gradientUnits="userSpaceOnUse">
<stop stop-color="#FF6E32"/>
<stop offset="1" stop-color="#FFC33C"/>
</linearGradient>
</defs>
</svg>
