<svg width="24" height="24" viewBox="0 0 24 24" fill="none" xmlns="http://www.w3.org/2000/svg">
<g clip-path="url(#clip0_4_3374)">
<path d="M19 14V17H22V19H19V22H17V19H14V17H17V14H19ZM20.243 4.757C22.403 6.923 22.572 10.314 20.75 12.667C19.926 12.24 18.99 12 18 12C14.686 12 12 14.686 12 18C12 19.009 12.249 19.96 12.689 20.794L11.999 21.485L3.52101 12.993C1.41701 10.637 1.49601 7.019 3.75701 4.757C6.02201 2.493 9.64501 2.417 12.001 4.529C14.35 2.42 17.98 2.49 20.243 4.757Z" fill="white"/>
</g>
<defs>
<clipPath id="clip0_4_3374">
<rect width="24" height="24" fill="white"/>
</clipPath>
</defs>
</svg>
