<svg id="Play_Icon" data-name="Play Icon" xmlns="http://www.w3.org/2000/svg" width="40" height="40" viewBox="0 0 40 40">
  <rect id="Rectangle_101" data-name="Rectangle 101" width="40" height="40" fill="#fff" opacity="0"/>
  <g id="Polygon_23" data-name="Polygon 23" transform="translate(30.148 12.162) rotate(90)" fill="#fff">
    <path d="M 17.2392463684082 17.11034774780273 L 1.671966433525085 17.11034774780273 C 1.416046500205994 17.11034774780273 1.28662645816803 16.9401683807373 1.242866516113281 16.86699867248535 C 1.199106454849243 16.7938289642334 1.110386490821838 16.59930801391602 1.231456518173218 16.37382888793945 L 9.015096664428711 1.87738823890686 C 9.142776489257812 1.639588236808777 9.365686416625977 1.61391818523407 9.455606460571289 1.61391818523407 C 9.545526504516602 1.61391818523407 9.768436431884766 1.639588236808777 9.896116256713867 1.87738823890686 L 17.67975616455078 16.37382888793945 C 17.80082702636719 16.59929847717285 17.71211624145508 16.7938289642334 17.66835594177246 16.86698913574219 C 17.62459564208984 16.94015884399414 17.49517631530762 17.11034774780273 17.2392463684082 17.11034774780273 Z" stroke="none"/>
    <path d="M 9.455596923828125 2.113908767700195 L 9.455606460571289 2.113918304443359 L 1.671966552734375 16.61034774780273 L 17.2392463684082 16.61035919189453 L 9.455596923828125 2.113908767700195 M 9.455606460571289 1.113916397094727 C 9.801811218261719 1.113916397094727 10.14801692962646 1.28956413269043 10.33663654327393 1.640857696533203 L 18.12027740478516 16.13729858398438 C 18.47797584533691 16.80348777770996 17.99539566040039 17.61034774780273 17.2392463684082 17.61034774780273 L 1.671966552734375 17.61034774780273 C 0.9158172607421875 17.61034774780273 0.4332256317138672 16.80348777770996 0.7909355163574219 16.13729858398438 L 8.574576377868652 1.640857696533203 C 8.763195991516113 1.28956413269043 9.109401702880859 1.113916397094727 9.455606460571289 1.113916397094727 Z" stroke="none" fill="#fff"/>
  </g>
</svg>
