<svg width="48" height="48" viewBox="0 0 48 48" fill="none" xmlns="http://www.w3.org/2000/svg">
<circle cx="24" cy="24" r="24" fill="#1C1C1E"/>
<g clip-path="url(#clip0_533_1135)">
<path d="M20 23.333L30.223 16.518C30.2983 16.4679 30.3858 16.4392 30.4761 16.4348C30.5664 16.4305 30.6563 16.4508 30.736 16.4935C30.8157 16.5361 30.8824 16.5997 30.9289 16.6772C30.9754 16.7548 31 16.8436 31 16.934V31.066C31 31.1564 30.9754 31.2452 30.9289 31.3228C30.8824 31.4003 30.8157 31.4639 30.736 31.5065C30.6563 31.5492 30.5664 31.5695 30.4761 31.5652C30.3858 31.5608 30.2983 31.5321 30.223 31.482L20 24.667V31C20 31.2652 19.8946 31.5196 19.7071 31.7071C19.5196 31.8946 19.2652 32 19 32C18.7348 32 18.4804 31.8946 18.2929 31.7071C18.1054 31.5196 18 31.2652 18 31V17C18 16.7348 18.1054 16.4804 18.2929 16.2929C18.4804 16.1054 18.7348 16 19 16C19.2652 16 19.5196 16.1054 19.7071 16.2929C19.8946 16.4804 20 16.7348 20 17V23.333Z" fill="white"/>
</g>
<defs>
<clipPath id="clip0_533_1135">
<rect width="24" height="24" fill="white" transform="translate(12 12)"/>
</clipPath>
</defs>
</svg>
