<svg id="Next_Icon" data-name="Next Icon" xmlns="http://www.w3.org/2000/svg" width="40" height="40" viewBox="0 0 40 40">
  <rect id="Rectangle_104" data-name="Rectangle 104" width="40" height="40" fill="#fff" opacity="0"/>
  <path id="Polygon_24" data-name="Polygon 24" d="M7.576,1.623a1,1,0,0,1,1.759,0l6.777,12.511a1,1,0,0,1-.879,1.476H1.679A1,1,0,0,1,.8,14.134Z" transform="translate(29.196 13.162) rotate(90)" fill="#fff"/>
  <path id="Polygon_24_-_Outline" data-name="Polygon 24 - Outline" d="M8.456,2.1h0L1.679,14.61H15.232L8.456,2.1m0-1a.99.99,0,0,1,.879.524l6.777,12.511a1,1,0,0,1-.879,1.476H1.679A1,1,0,0,1,.8,14.134L7.576,1.623A.99.99,0,0,1,8.456,1.1Z" transform="translate(29.196 13.162) rotate(90)" fill="#fff"/>
  <path id="Line_31" data-name="Line 31" d="M0,16a1,1,0,0,1-1-1V0A1,1,0,0,1,0-1,1,1,0,0,1,1,0V15A1,1,0,0,1,0,16Z" transform="translate(28.5 14.117)" fill="#fff"/>
</svg>
