<svg id="NEWM-Logo" xmlns="http://www.w3.org/2000/svg" xmlns:xlink="http://www.w3.org/1999/xlink" width="1571.379" height="1570.186" viewBox="0 0 1571.379 1570.186">
  <defs>
    <linearGradient id="linear-gradient" x1="0.851" y1="0.144" x2="0.146" y2="0.851" gradientUnits="objectBoundingBox">
      <stop offset="0" stop-color="#09c"/>
      <stop offset="0.143" stop-color="#339"/>
      <stop offset="0.286" stop-color="#c3c"/>
      <stop offset="0.429" stop-color="#f36"/>
      <stop offset="0.572" stop-color="#bf192d"/>
      <stop offset="0.715" stop-color="#f90"/>
      <stop offset="0.858" stop-color="#ff6"/>
      <stop offset="1" stop-color="#6f6"/>
    </linearGradient>
  </defs>
  <path id="Background" d="M924.275,1498.5a732.3,732.3,0,0,0,524.4,214.266c404.406-4.3,728.755-335.451,724.456-739.46a730.609,730.609,0,0,0-724.456-722.992C1044.629,246.2,713.833,570.195,709.714,973.846a733.9,733.9,0,0,0,54.267,283.9A742.047,742.047,0,0,0,924.275,1498.5Z" transform="translate(-682.581 -169.465)" fill="#0a0a0a"/>
  <path id="Eclipse" d="M924.961,1545.267A777.984,777.984,0,0,1,756.07,1294.306c-168-399.713,19.88-859.928,419.809-1027.833a785.867,785.867,0,0,1,1031.791,427.1c163.7,401.682-29.372,859.929-431.271,1023.716a783.833,783.833,0,0,1-851.438-172.022Zm11.283-11.1a732.3,732.3,0,0,0,524.4,214.266c404.406-4.3,728.755-335.451,724.456-739.46a730.609,730.609,0,0,0-724.456-722.992C1056.6,281.867,725.8,605.862,721.683,1009.513a733.9,733.9,0,0,0,54.267,283.9,742.046,742.046,0,0,0,160.294,240.759Z" transform="translate(-694.55 -205.132)" fill="url(#linear-gradient)"/>
  <g id="Group_346" data-name="Group 346" transform="translate(291.968 444.683)">
    <path id="M" d="M851.9,309.9,613.877,719.279,454.3,444.689V701.737L568.744,898.1H659.19L863.363,547.616v497.09h138.085V309.9Z" transform="translate(-42.373 -309.901)" fill="#fff"/>
    <path id="N" d="M224.3,309.9v734.806H362.385l-.179-470.061,274.022,470.061V787.121L357.908,309.9Z" transform="translate(-224.301 -309.901)" fill="#fff"/>
  </g>
</svg>
