<svg width="48" height="48" viewBox="0 0 48 48" fill="none" xmlns="http://www.w3.org/2000/svg">
<circle cx="24" cy="24" r="24" fill="url(#paint0_linear_533_1111)"/>
<g clip-path="url(#clip0_533_1111)">
<path d="M30 29.883V28L35 31L30 34V31.91C28.4714 31.6911 27.0249 31.0826 25.7995 30.143C24.5741 29.2034 23.6111 27.9644 23.003 26.545L23 26.54L22.997 26.546C22.3031 28.1647 21.1495 29.5443 19.6791 30.5138C18.2087 31.4833 16.4862 32 14.725 32H14V30H14.725C16.095 30 17.4348 29.5979 18.5785 28.8437C19.7222 28.0895 20.6194 27.0162 21.159 25.757L21.912 24L21.159 22.243C20.6194 20.9838 19.7222 19.9105 18.5785 19.1563C17.4348 18.4021 16.095 18 14.725 18H14V16H14.725C16.4863 16.0001 18.2089 16.517 19.6793 17.4866C21.1497 18.4563 22.3032 19.8361 22.997 21.455L23 21.46L23.003 21.454C23.6112 20.0348 24.5743 18.7959 25.7997 17.8565C27.0251 16.9171 28.4715 16.3088 30 16.09V14L35 17L30 20V18.117C28.8669 18.3269 27.8031 18.8134 26.9032 19.5332C26.0032 20.2529 25.2949 21.1837 24.841 22.243L24.088 24L24.841 25.757C25.2949 26.8163 26.0032 27.7471 26.9032 28.4668C27.8031 29.1866 28.8669 29.6731 30 29.883Z" fill="white"/>
</g>
<defs>
<linearGradient id="paint0_linear_533_1111" x1="-3.57628e-07" y1="48" x2="53.9592" y2="8.04861" gradientUnits="userSpaceOnUse">
<stop stop-color="#C341F0"/>
<stop offset="1" stop-color="#F53C69"/>
</linearGradient>
<clipPath id="clip0_533_1111">
<rect width="24" height="24" fill="white" transform="translate(12 12)"/>
</clipPath>
</defs>
</svg>
