<svg id="Back_Icon" data-name="Back Icon" xmlns="http://www.w3.org/2000/svg" width="40" height="40" viewBox="0 0 40 40">
  <g id="Group_279" data-name="Group 279" transform="translate(-98.287 -223.703)">
    <rect id="Rectangle_136" data-name="Rectangle 136" width="40" height="40" transform="translate(98.287 223.703)" fill="#fff" opacity="0.002"/>
  </g>
  <path id="Subtraction_8" data-name="Subtraction 8" d="M-5826.5-14149.147a1.053,1.053,0,0,1,.241-.673l5.251-6.3a1.051,1.051,0,0,1,1.48-.137,1.051,1.051,0,0,1,.137,1.48l-4.7,5.629,4.536,5.628a1.054,1.054,0,0,1,.229.773,1.053,1.053,0,0,1-.387.708,1.049,1.049,0,0,1-.8.261,1.051,1.051,0,0,1-.734-.408l-5.072-6.3A1.048,1.048,0,0,1-5826.5-14149.147Z" transform="translate(5841.86 14168.687)" fill="#fff"/>
</svg>
