<svg width="21" height="20" viewBox="0 0 21 20" fill="none" xmlns="http://www.w3.org/2000/svg">
<g clip-path="url(#clip0_12563_2999)">
<path d="M10.1865 6.01833C9.45647 6.01833 8.32647 5.18833 7.13647 5.21833C5.56647 5.23833 4.12647 6.12833 3.31647 7.53833C1.68647 10.3683 2.89647 14.5483 4.48647 16.8483C5.26647 17.9683 6.18647 19.2283 7.40647 19.1883C8.57647 19.1383 9.01647 18.4283 10.4365 18.4283C11.8465 18.4283 12.2465 19.1883 13.4865 19.1583C14.7465 19.1383 15.5465 18.0183 16.3165 16.8883C17.2065 15.5883 17.5765 14.3283 17.5965 14.2583C17.5665 14.2483 15.1465 13.3183 15.1165 10.5183C15.0965 8.17833 17.0265 7.05833 17.1165 7.00833C16.0165 5.39833 14.3265 5.21833 13.7365 5.17833C12.1965 5.05833 10.9065 6.01833 10.1865 6.01833ZM12.7865 3.65833C13.4365 2.87833 13.8665 1.78833 13.7465 0.708328C12.8165 0.748328 11.6965 1.32833 11.0265 2.10833C10.4265 2.79833 9.90647 3.90833 10.0465 4.96833C11.0765 5.04833 12.1365 4.43833 12.7865 3.65833Z" fill="#DC3CAA"/>
</g>
<defs>
<clipPath id="clip0_12563_2999">
<rect width="20" height="20" fill="white" transform="translate(0.5)"/>
</clipPath>
</defs>
</svg>
