<svg id="Ahead_Icon" data-name="Ahead Icon" xmlns="http://www.w3.org/2000/svg" width="40" height="40" viewBox="0 0 40 40">
  <g id="Group_278" data-name="Group 278" transform="translate(-159.743 -223.703)">
    <rect id="Rectangle_137" data-name="Rectangle 137" width="40" height="40" transform="translate(159.743 223.703)" fill="#fff" opacity="0.002"/>
  </g>
  <g id="Group_348" data-name="Group 348" transform="translate(-159.743 -223.703)">
    <path id="Subtraction_9" data-name="Subtraction 9" d="M-5826.5-14149.147a1.053,1.053,0,0,1,.241-.673l5.251-6.3a1.051,1.051,0,0,1,1.48-.137,1.051,1.051,0,0,1,.137,1.48l-4.7,5.629,4.536,5.628a1.054,1.054,0,0,1,.229.773,1.053,1.053,0,0,1-.387.708,1.049,1.049,0,0,1-.8.261,1.051,1.051,0,0,1-.734-.408l-5.072-6.3A1.048,1.048,0,0,1-5826.5-14149.147Z" transform="translate(-5642.078 -13905.883) rotate(180)" fill="#fff"/>
  </g>
</svg>
