<svg id="Stars_Icon" data-name="Stars Icon" xmlns="http://www.w3.org/2000/svg" width="40" height="40" viewBox="0 0 40 40">
  <rect id="Rectangle_100" data-name="Rectangle 100" width="40" height="40" fill="#fff" opacity="0.002"/>
  <g id="Path_2269" data-name="Path 2269" transform="translate(7 8.205)" fill="#fff">
    <path d="M 6.731878757476807 22.1699047088623 L 8.501948356628418 16.24088478088379 C 8.738529205322266 15.44847393035889 8.455549240112305 14.57928371429443 7.797798633575439 14.07802391052246 L 2.866758823394775 10.320143699646 C 2.866760730743408 10.32014465332031 2.866760969161987 10.32014465332031 2.866760969161987 10.320143699646 L 9.088778495788574 10.16194438934326 C 9.910358428955078 10.14105415344238 10.6472692489624 9.606714248657227 10.92246913909912 8.832324028015137 L 13.00018882751465 2.986164093017578 L 15.07790851593018 8.832344055175781 C 15.35312843322754 9.606723785400391 16.09002876281738 10.14105415344238 16.91159820556641 10.16194438934326 L 23.13360977172852 10.320143699646 L 18.20256805419922 14.07802391052246 C 17.54483795166016 14.57927417755127 17.2618579864502 15.44845390319824 17.4984188079834 16.24087333679199 L 19.26849937438965 22.1699047088623 C 19.26848793029785 22.16987800598145 19.26848411560059 22.16987991333008 19.26848220825195 22.16988182067871 L 14.12972927093506 18.6530933380127 C 13.79562854766846 18.4244441986084 13.40503883361816 18.3035831451416 13.00018882751465 18.3035831451416 C 12.59532928466797 18.3035831451416 12.2047290802002 18.42445373535156 11.87062835693359 18.65310478210449 L 6.731878757476807 22.16989326477051 L 6.731878757476807 22.1699047088623 Z" stroke="none"/>
    <path d="M 13.00018882751465 5.972320556640625 L 11.86473846435547 9.167184829711914 C 11.45192909240723 10.32878398895264 10.3465690612793 11.13028430938721 9.114198684692383 11.16161441802979 L 5.733518600463867 11.24757099151611 L 8.403928756713867 13.28265380859375 C 9.390558242797852 14.03454399108887 9.815019607543945 15.33833408355713 9.460159301757812 16.52695465087891 L 8.498117446899414 19.74938774108887 L 11.30580902099609 17.82789421081543 C 11.80696868896484 17.48488426208496 12.39287853240967 17.30358505249023 13.00018882751465 17.30358505249023 C 13.6074686050415 17.30358505249023 14.19336891174316 17.4848747253418 14.69449901580811 17.82785415649414 L 17.50225067138672 19.74938011169434 L 16.54019927978516 16.52692413330078 C 16.18536758422852 15.33830451965332 16.60983848571777 14.0345344543457 17.59643936157227 13.28266429901123 L 20.26685333251953 11.24757099151611 L 16.88617897033691 11.16161441802979 C 15.65382862091064 11.13028430938721 14.5484790802002 10.32880401611328 14.13564872741699 9.167224884033203 L 13.00018882751465 5.972320556640625 M 13.00018501281738 1.986162185668945 C 13.39252090454102 1.986162185668945 13.78485870361328 2.207868576049805 13.94244861602783 2.651283264160156 L 16.02016830444336 8.497463226318359 C 16.15876770019531 8.887443542480469 16.52327919006348 9.151744842529297 16.93701934814453 9.162263870239258 L 23.15902900695801 9.320464134216309 C 24.10306930541992 9.344464302062988 24.4908390045166 10.54310417175293 23.73974800109863 11.11549377441406 L 18.80870819091797 14.87338447570801 C 18.47783851623535 15.12553405761719 18.3376293182373 15.55619430541992 18.45662879943848 15.95481395721436 L 20.22670936584473 21.88382339477539 C 20.49628829956055 22.78683471679688 19.48143005371094 23.52737236022949 18.70372772216797 22.99514389038086 L 13.5649585723877 19.47834396362305 C 13.22448921203613 19.24533462524414 12.77587890625 19.24533462524414 12.4354190826416 19.47834396362305 L 7.296648025512695 22.99514389038086 C 6.518943786621094 23.52737617492676 5.504079818725586 22.78683280944824 5.77366828918457 21.88382339477539 L 7.543739318847656 15.95481395721436 C 7.662748336791992 15.55619430541992 7.522539138793945 15.12553405761719 7.191669464111328 14.87338447570801 L 2.260629653930664 11.11550426483154 C 1.509538650512695 10.54310417175293 1.897308349609375 9.344464302062988 2.841348648071289 9.320464134216309 L 9.063358306884766 9.162263870239258 C 9.47709846496582 9.151744842529297 9.841608047485352 8.887443542480469 9.980197906494141 8.497463226318359 L 12.05792903900146 2.651283264160156 C 12.21551418304443 2.207868576049805 12.60784912109375 1.986162185668945 13.00018501281738 1.986162185668945 Z" stroke="none" fill="#fff"/>
  </g>
</svg>
