<svg width="80" height="80" viewBox="0 0 80 80" fill="none" xmlns="http://www.w3.org/2000/svg">
<circle cx="40" cy="40" r="40" fill="#48484A"/>
<g clip-path="url(#clip0_533_1123)">
<path d="M52.2934 40.6933L34.6284 52.47C34.5029 52.5535 34.3571 52.6014 34.2065 52.6086C34.056 52.6158 33.9063 52.5821 33.7734 52.5109C33.6405 52.4398 33.5294 52.3339 33.4519 52.2046C33.3744 52.0753 33.3335 51.9274 33.3334 51.7767V28.2233C33.3335 28.0726 33.3744 27.9247 33.4519 27.7954C33.5294 27.6661 33.6405 27.5603 33.7734 27.4891C33.9063 27.418 34.056 27.3842 34.2065 27.3914C34.3571 27.3986 34.5029 27.4465 34.6284 27.53L52.2934 39.3067C52.4075 39.3828 52.5011 39.4859 52.5658 39.6068C52.6305 39.7278 52.6644 39.8628 52.6644 40C52.6644 40.1372 52.6305 40.2722 52.5658 40.3932C52.5011 40.5141 52.4075 40.6172 52.2934 40.6933Z" fill="url(#paint0_linear_533_1123)"/>
</g>
<defs>
<linearGradient id="paint0_linear_533_1123" x1="42.9989" y1="52.6096" x2="55.6085" y2="40" gradientUnits="userSpaceOnUse">
<stop stop-color="#D841F0"/>
<stop offset="1" stop-color="#F53C74"/>
</linearGradient>
<clipPath id="clip0_533_1123">
<rect width="40" height="40" fill="white" transform="translate(20 20)"/>
</clipPath>
</defs>
</svg>
