<svg id="Star_unselected" data-name="Star unselected" xmlns="http://www.w3.org/2000/svg" width="40" height="40" viewBox="0 0 40 40">
  <rect id="Rectangle_100" data-name="Rectangle 100" width="40" height="40" fill="#fff" opacity="0.002"/>
  <path id="Polygon_43" data-name="Polygon 43" d="M13,5.972,11.865,9.167a3.018,3.018,0,0,1-2.751,1.994l-3.381.086L8.4,13.283A3.015,3.015,0,0,1,9.46,16.527L8.5,19.749l2.808-1.921a3,3,0,0,1,3.389,0L17.5,19.749l-.962-3.222A3.015,3.015,0,0,1,17.6,13.283l2.67-2.035-3.381-.086a3.018,3.018,0,0,1-2.751-1.994L13,5.972m0-3.986a.983.983,0,0,1,.942.665L16.02,8.5a1,1,0,0,0,.917.665l6.222.158a1,1,0,0,1,.581,1.8l-4.931,3.758a1,1,0,0,0-.352,1.081l1.77,5.929A1,1,0,0,1,18.7,23l-5.139-3.517a1,1,0,0,0-1.13,0L7.3,23a1,1,0,0,1-1.523-1.111l1.77-5.929a1,1,0,0,0-.352-1.081L2.261,11.116a1,1,0,0,1,.581-1.8l6.222-.158A1,1,0,0,0,9.98,8.5l2.078-5.846A.983.983,0,0,1,13,1.986Z" transform="translate(7 8.205)" fill="#fff"/>
</svg>
