<svg width="32" height="32" viewBox="0 0 32 32" fill="none" xmlns="http://www.w3.org/2000/svg">
<rect width="32" height="32" rx="4" fill="url(#paint0_linear_16_278)"/>
<path d="M9.24753 20.8833L12.5059 17.625L14.8634 19.9817L18.6725 16.1733L20.1667 17.6667V13.5H16L17.4942 14.9942L14.8634 17.625L12.5067 15.2675L8.38503 19.3892C7.90997 18.3225 7.6652 17.1677 7.66669 16C7.66669 11.3975 11.3975 7.66667 16 7.66667C20.6025 7.66667 24.3334 11.3975 24.3334 16C24.3334 20.6025 20.6025 24.3333 16 24.3333C14.6817 24.3342 13.382 24.0219 12.208 23.4221C11.0341 22.8222 10.0194 21.9521 9.24753 20.8833V20.8833Z" fill="white"/>
<defs>
<linearGradient id="paint0_linear_16_278" x1="-2.38419e-07" y1="32" x2="35.9728" y2="5.36574" gradientUnits="userSpaceOnUse">
<stop stop-color="#0099CC"/>
<stop offset="1" stop-color="#3ECD8E"/>
</linearGradient>
</defs>
</svg>
