<svg width="20" height="20" viewBox="0 0 20 20" fill="none" xmlns="http://www.w3.org/2000/svg">
<g clip-path="url(#clip0_12563_1215)">
<path d="M5.83333 4.99996V2.49996C5.83333 2.27895 5.92113 2.06698 6.07741 1.9107C6.23369 1.75442 6.44565 1.66663 6.66667 1.66663H16.6667C16.8877 1.66663 17.0996 1.75442 17.2559 1.9107C17.4122 2.06698 17.5 2.27895 17.5 2.49996V14.1666C17.5 14.3876 17.4122 14.5996 17.2559 14.7559C17.0996 14.9122 16.8877 15 16.6667 15H14.1667V17.5C14.1667 17.96 13.7917 18.3333 13.3275 18.3333H3.33917C3.22927 18.334 3.12033 18.3129 3.0186 18.2713C2.91687 18.2297 2.82436 18.1685 2.74638 18.091C2.6684 18.0136 2.60649 17.9215 2.56421 17.8201C2.52193 17.7186 2.50011 17.6099 2.5 17.5L2.5025 5.83329C2.5025 5.37329 2.8775 4.99996 3.34167 4.99996H5.83333ZM7.5 4.99996H14.1667V13.3333H15.8333V3.33329H7.5V4.99996Z" fill="#46AABE"/>
</g>
<defs>
<clipPath id="clip0_12563_1215">
<rect width="20" height="20" fill="white"/>
</clipPath>
</defs>
</svg>
