<svg width="200" height="200" viewBox="0 0 200 200" fill="none" xmlns="http://www.w3.org/2000/svg">
<g clip-path="url(#clip0_2114_2544)">
<path d="M30.8579 170.065C39.6574 178.868 50.1243 185.827 61.6462 190.536C73.1681 195.244 85.5134 197.607 97.9597 197.487C149.697 196.939 191.195 154.554 190.645 102.818C190.394 78.3274 180.545 54.9122 163.213 37.6057C145.882 20.2993 122.452 10.4831 97.9597 10.2671C46.2687 9.74694 3.94802 51.2185 3.42554 102.899C3.29983 115.353 5.66201 127.707 10.3736 139.237C15.1157 150.752 22.0758 161.222 30.8579 170.051V170.065Z" fill="black"/>
<path fill-rule="evenodd" clip-rule="evenodd" d="M99.9612 200.203C155.168 200.203 199.922 155.437 199.922 100.216C199.922 44.994 155.168 0.228058 99.9612 0.228058C44.7542 0.228058 0 44.994 0 100.216C0 155.437 44.7542 200.203 99.9612 200.203ZM96.6558 196.783C148.149 196.783 189.892 155.028 189.892 103.522C189.892 52.0153 148.149 10.261 96.6558 10.261C45.1628 10.261 3.41943 52.0153 3.41943 103.522C3.41943 155.028 45.1628 196.783 96.6558 196.783Z" fill="url(#paint0_linear_2114_2544)"/>
<path d="M140.199 56.6474L109.887 108.8L89.5753 73.8243L89.5867 106.566L104.151 131.589H115.668L141.646 86.9264V150.266H159.218V56.6474H140.199Z" fill="white"/>
<path d="M37.1464 56.6474V150.266H54.7222L54.7131 90.3855L89.5753 150.266V117.436L54.1523 56.6474H37.1464Z" fill="white"/>
</g>
<defs>
<linearGradient id="paint0_linear_2114_2544" x1="27.5834" y1="170.902" x2="171.731" y2="28.6936" gradientUnits="userSpaceOnUse">
<stop stop-color="#FFC33C"/>
<stop offset="0.197917" stop-color="#FF6E32"/>
<stop offset="0.395833" stop-color="#F53C69"/>
<stop offset="0.59375" stop-color="#C341F0"/>
<stop offset="0.791667" stop-color="#5091EB"/>
<stop offset="1" stop-color="#41BE91"/>
</linearGradient>
<clipPath id="clip0_2114_2544">
<rect width="200" height="200" fill="white"/>
</clipPath>
</defs>
</svg>
