<svg id="Rewind_Icon" data-name="Rewind Icon" xmlns="http://www.w3.org/2000/svg" width="40" height="40" viewBox="0 0 40 40">
  <rect id="Rectangle_107" data-name="Rectangle 107" width="40" height="40" fill="#fff" opacity="0"/>
  <g id="Polygon_26" data-name="Polygon 26" transform="translate(8.478 28.139) rotate(-90)" fill="#fff">
    <path d="M 11.36500263214111 11.54062461853027 L 1.678942680358887 11.54062461853027 C 1.422472715377808 11.54062461853027 1.293092608451843 11.36989498138428 1.249372601509094 11.29648494720459 C 1.205652713775635 11.22308444976807 1.117142677307129 11.02800464630127 1.239302635192871 10.8024845123291 L 6.082332611083984 1.861454844474792 C 6.210352420806885 1.625114798545837 6.432432651519775 1.599594831466675 6.52197265625 1.599594831466675 C 6.611512660980225 1.599594831466675 6.833592891693115 1.625114798545837 6.961612701416016 1.861454844474792 L 11.80464267730713 10.8024845123291 C 11.92680263519287 11.02800464630127 11.83830261230469 11.2230749130249 11.79458236694336 11.29648494720459 C 11.75086307525635 11.3698844909668 11.62148284912109 11.54062461853027 11.36500263214111 11.54062461853027 Z" stroke="none"/>
    <path d="M 6.521962642669678 2.099595069885254 L 6.52197265625 2.099595069885254 L 1.67926025390625 11.04062461853027 L 11.3648509979248 11.04034519195557 L 6.521962642669678 2.099595069885254 M 6.52197265625 1.099596977233887 C 6.867057800292969 1.099596977233887 7.212142467498779 1.274169921875 7.401262760162354 1.62331485748291 L 12.24429225921631 10.56434440612793 C 12.60520267486572 11.23064517974854 12.12277221679688 12.04062461853027 11.36500263214111 12.04062461853027 L 1.678942680358887 12.04062461853027 C 0.921173095703125 12.04062461853027 0.4387331008911133 11.23064517974854 0.7996530532836914 10.56434440612793 L 5.642682552337646 1.62331485748291 C 5.831802845001221 1.274169921875 6.176887512207031 1.099596977233887 6.52197265625 1.099596977233887 Z" stroke="none" fill="#fff"/>
  </g>
  <g id="Polygon_27" data-name="Polygon 27" transform="translate(17.482 28.139) rotate(-90)" fill="#fff">
    <path d="M 11.36500263214111 11.54062461853027 L 1.678942680358887 11.54062461853027 C 1.422472715377808 11.54062461853027 1.293092608451843 11.36989498138428 1.249372601509094 11.29648494720459 C 1.205652713775635 11.22308444976807 1.117142677307129 11.02800464630127 1.239302635192871 10.8024845123291 L 6.082332611083984 1.861454844474792 C 6.210352420806885 1.625114798545837 6.432432651519775 1.599594831466675 6.52197265625 1.599594831466675 C 6.611512660980225 1.599594831466675 6.833592891693115 1.625114798545837 6.961612701416016 1.861454844474792 L 11.80464267730713 10.8024845123291 C 11.92680263519287 11.02800464630127 11.83830261230469 11.2230749130249 11.79458236694336 11.29648494720459 C 11.75086307525635 11.3698844909668 11.62148284912109 11.54062461853027 11.36500263214111 11.54062461853027 Z" stroke="none"/>
    <path d="M 6.521962642669678 2.099595069885254 L 6.52197265625 2.099595069885254 L 1.67926025390625 11.04062461853027 L 11.3648509979248 11.04034519195557 L 6.521962642669678 2.099595069885254 M 6.52197265625 1.099596977233887 C 6.867057800292969 1.099596977233887 7.212142467498779 1.274169921875 7.401262760162354 1.62331485748291 L 12.24429225921631 10.56434440612793 C 12.60520267486572 11.23064517974854 12.12277221679688 12.04062461853027 11.36500263214111 12.04062461853027 L 1.678942680358887 12.04062461853027 C 0.921173095703125 12.04062461853027 0.4387331008911133 11.23064517974854 0.7996530532836914 10.56434440612793 L 5.642682552337646 1.62331485748291 C 5.831802845001221 1.274169921875 6.176887512207031 1.099596977233887 6.52197265625 1.099596977233887 Z" stroke="none" fill="#fff"/>
  </g>
</svg>
