<svg width="22" height="22" viewBox="0 0 22 22" fill="none" xmlns="http://www.w3.org/2000/svg">
<g clip-path="url(#clip0_2114_7849)">
<path d="M7.33325 18.3333V20.1043C7.33339 20.1915 7.30868 20.2769 7.262 20.3505C7.21532 20.4241 7.14861 20.4829 7.06971 20.52C6.99081 20.557 6.90297 20.5708 6.81652 20.5597C6.73006 20.5486 6.64856 20.513 6.58158 20.4572L2.80492 17.3103C2.73248 17.2499 2.68044 17.1686 2.65591 17.0776C2.63137 16.9865 2.63552 16.8901 2.6678 16.8015C2.70008 16.7128 2.75892 16.6363 2.83628 16.5824C2.91364 16.5284 3.00577 16.4997 3.10009 16.5H16.4999C16.9861 16.5 17.4525 16.3068 17.7963 15.963C18.1401 15.6192 18.3333 15.1529 18.3333 14.6667V7.33333H20.1666V14.6667C20.1666 15.6391 19.7803 16.5718 19.0926 17.2594C18.405 17.947 17.4724 18.3333 16.4999 18.3333H7.33325ZM14.6666 3.66666V1.89566C14.6664 1.8085 14.6912 1.72309 14.7378 1.64948C14.7845 1.57586 14.8512 1.51708 14.9301 1.48004C15.009 1.44299 15.0969 1.42921 15.1833 1.44032C15.2698 1.45143 15.3513 1.48696 15.4183 1.54275L19.1949 4.68966C19.2673 4.75002 19.3193 4.83122 19.3439 4.9222C19.3684 5.01318 19.3644 5.10952 19.3322 5.1981C19.3 5.28668 19.2413 5.36319 19.1641 5.41721C19.0869 5.47124 18.9949 5.50014 18.9007 5.5H5.49992C5.01369 5.5 4.54737 5.69315 4.20356 6.03697C3.85974 6.38078 3.66659 6.8471 3.66659 7.33333V14.6667H1.83325V7.33333C1.83325 6.36087 2.21956 5.42824 2.90719 4.74061C3.59483 4.05297 4.52746 3.66666 5.49992 3.66666H14.6666ZM10.0833 7.33333H11.9166V14.6667H10.0833V9.16666H8.24992V8.25L10.0833 7.33333Z" fill="url(#paint0_linear_2114_7849)"/>
</g>
<defs>
<linearGradient id="paint0_linear_2114_7849" x1="1.83325" y1="20.5634" x2="23.0532" y2="5.50399" gradientUnits="userSpaceOnUse">
<stop stop-color="#C341F0"/>
<stop offset="1" stop-color="#F53C69"/>
</linearGradient>
<clipPath id="clip0_2114_7849">
<rect width="22" height="22" fill="white"/>
</clipPath>
</defs>
</svg>
